<svg xmlns="http://www.w3.org/2000/svg" version="1.1" viewBox="-0.05 0.41 1614.51 356.39"><path d="M 1571.746 1.029 C 1547.103 7.208, 1536.140 35.262, 1550.121 56.368 C 1556.363 65.792, 1567.696 71.520, 1580 71.469 C 1586.261 71.443, 1588.574 70.929, 1594 68.360 C 1601.783 64.675, 1608.115 58.501, 1611.795 51.007 C 1614.172 46.168, 1614.495 44.348, 1614.460 36 C 1614.427 28.407, 1613.979 25.538, 1612.228 21.709 C 1609.048 14.758, 1601.037 6.738, 1594.215 3.677 C 1587.756 0.779, 1577.544 -0.425, 1571.746 1.029 M 1572.718 7.050 C 1563.804 9.247, 1556.869 14.984, 1552.844 23.491 C 1545.819 38.341, 1551.869 55.386, 1566.750 62.666 C 1578.002 68.171, 1593.025 65.431, 1600.925 56.432 C 1606.875 49.656, 1608.475 45.333, 1608.488 36 C 1608.499 28.432, 1608.174 26.912, 1605.529 22.136 C 1602.336 16.371, 1596.437 10.912, 1590.923 8.619 C 1586.277 6.686, 1577.322 5.915, 1572.718 7.050 M 1565 36 L 1565 52 1568.500 52 L 1572 52 1572 45.500 C 1572 39.667, 1572.205 39, 1574 39 C 1576.459 39, 1578.603 41.081, 1582.500 47.248 C 1585.331 51.728, 1585.746 51.997, 1589.865 51.998 L 1594.230 52 1592.446 49.250 C 1586.743 40.460, 1585.630 38.996, 1584.617 38.960 C 1584.003 38.938, 1584.726 38.254, 1586.225 37.441 C 1589.539 35.643, 1591 33.105, 1591 29.148 C 1591 21.822, 1587.724 20, 1574.550 20 L 1565 20 1565 36 M 1572 29.448 L 1572 33 1577.531 33 C 1581.730 33, 1583.214 32.606, 1583.691 31.364 C 1584.860 28.317, 1582.579 26.517, 1577.147 26.198 L 1572 25.895 1572 29.448 M 218.303 49.048 C 206.044 51.471, 193.339 58.781, 181.836 70.031 L 173.114 78.562 169.307 73.741 C 167.213 71.090, 162.891 66.867, 159.703 64.357 C 135.206 45.072, 103.415 46.778, 81.270 68.566 L 73.844 75.872 67.172 68.706 C 63.502 64.764, 58.307 59.178, 55.626 56.291 C 48.082 48.170, 47.904 48.184, 22.553 59 C -2.282 69.596, -3.014 70.273, 3.262 76.827 C 5.197 78.847, 7.617 82.075, 8.640 84 C 10.415 87.340, 10.512 92.387, 10.772 194.250 C 10.921 252.963, 11.201 301, 11.393 301 C 11.585 301, 24.853 297.400, 40.876 293 C 56.900 288.600, 70.226 285, 70.489 285 C 70.753 285, 71.089 243.867, 71.235 193.593 L 71.500 102.185 74.607 98.347 C 76.315 96.236, 79.906 93.382, 82.586 92.004 C 86.724 89.877, 88.816 89.500, 96.479 89.500 C 104.562 89.500, 105.996 89.792, 110.272 92.305 C 112.897 93.848, 116.272 96.965, 117.772 99.232 L 120.500 103.353 121 201.076 L 121.500 298.799 149 290.590 L 176.500 282.382 177 191.784 L 177.500 101.185 180.607 97.347 C 191.124 84.353, 216.711 85.151, 226.041 98.764 L 228.500 102.352 229 186.426 C 229.500 270.459, 229.501 270.503, 231.738 276.432 C 234.535 283.843, 239.283 291.740, 244.524 297.696 L 248.557 302.279 271.212 294.983 L 293.867 287.686 290.531 281.061 C 288.696 277.418, 286.663 272.463, 286.014 270.052 C 285.158 266.872, 284.788 242.716, 284.667 182.084 C 284.501 98.972, 284.487 98.456, 282.278 90.700 C 276.164 69.236, 262.147 54.429, 243.356 49.584 C 236.862 47.910, 225.315 47.663, 218.303 49.048 M 577.500 57.818 C 566.500 62.593, 556.938 66.864, 556.250 67.309 C 554.176 68.651, 554.831 71.907, 557.960 75.809 C 564.900 84.462, 564.470 77.015, 564.772 193.972 C 564.922 251.982, 565.374 299.774, 565.776 300.176 C 566.178 300.578, 579.105 295.391, 594.503 288.650 L 622.500 276.392 623 191.446 L 623.500 106.500 625.757 102.277 C 632.478 89.698, 647.053 82.316, 663.409 83.207 C 677.089 83.952, 687.181 90.331, 692.192 101.401 L 694.500 106.500 695 189.077 L 695.500 271.654 699.680 280.088 C 702.010 284.788, 706.223 291.123, 709.198 294.396 L 714.535 300.269 736.018 293.450 C 747.833 289.700, 757.910 286.282, 758.410 285.855 C 758.932 285.411, 757.985 282.572, 756.192 279.208 C 749.871 267.349, 750 269.334, 750 184.104 C 750 97.988, 750.167 100.410, 743.240 86.158 C 738.757 76.935, 727.723 64.965, 718.875 59.724 C 709.941 54.433, 698.357 50.955, 687.439 50.285 C 666.342 48.990, 647.567 56.325, 632.201 71.864 C 628.736 75.368, 625.763 78.069, 625.594 77.867 C 625.425 77.665, 621.126 71.529, 616.041 64.230 C 610.955 56.932, 605.970 50.519, 604.963 49.980 C 601.382 48.063, 597.258 49.240, 577.500 57.818 M 867.500 49.416 C 866.950 49.627, 863.155 50.569, 859.067 51.510 C 827.343 58.813, 797.546 85.623, 785.002 118.151 C 775.535 142.700, 774.368 166.288, 780.996 199.139 C 788.765 237.650, 803.096 266.759, 822.186 282.808 C 829.363 288.841, 841.654 295.238, 850.500 297.544 C 865.019 301.329, 884.098 300.397, 903.488 294.956 C 910.022 293.123, 913.699 292.513, 914.118 293.192 C 915.476 295.388, 916.047 311.910, 915.061 320.500 C 913.696 332.401, 911.678 339.928, 907.448 348.896 C 905.529 352.964, 904.150 356.483, 904.383 356.716 C 905.309 357.642, 920.722 350.405, 927.551 345.838 C 953.867 328.236, 967.947 297.494, 968.008 257.500 C 968.025 246.625, 965.947 173.787, 965.608 173.365 C 965.517 173.252, 909.718 176.812, 909.388 176.952 C 909.326 176.978, 910.118 180.488, 911.149 184.750 C 916.312 206.099, 918.025 231.334, 915.103 243 C 912.427 253.686, 907.016 261.544, 900.685 263.936 C 889.051 268.332, 872.725 257.921, 859.544 237.699 C 837.660 204.125, 824.252 147.205, 830.487 114.338 C 832.430 104.096, 837.835 93.153, 843.234 88.531 C 847.428 84.941, 855.013 82, 860.076 82 C 865.009 82, 875.707 85.956, 881.830 90.045 C 889.976 95.485, 901.767 108.236, 909.185 119.625 C 912.543 124.781, 915.437 129, 915.616 129 C 916.060 129, 955.149 100.068, 956.866 98.469 C 958.009 97.404, 957.698 96.407, 954.956 92.348 C 940.891 71.527, 924.536 58.698, 903.500 51.985 C 897.995 50.228, 893.511 49.675, 882.500 49.392 C 874.800 49.195, 868.050 49.206, 867.500 49.416 M 1017.500 57.650 C 1006.500 62.370, 996.938 66.685, 996.250 67.238 C 994.211 68.880, 994.809 71.879, 997.960 75.809 C 1004.902 84.465, 1004.470 76.925, 1004.772 194.750 C 1004.922 253.188, 1005.372 300.994, 1005.772 300.986 C 1006.172 300.978, 1018.650 295.421, 1033.500 288.637 L 1060.500 276.302 1060.500 179.901 L 1060.500 83.500 1058.240 75 C 1053.954 58.886, 1047.325 48.969, 1040.882 49.035 C 1038.919 49.055, 1029.106 52.671, 1017.500 57.650 M 1115.500 57.818 C 1104.500 62.593, 1094.938 66.864, 1094.250 67.309 C 1092.150 68.668, 1092.847 72.062, 1095.955 75.601 C 1097.580 77.452, 1099.942 82.011, 1101.204 85.733 L 1103.499 92.500 1103.780 196.750 C 1103.935 254.088, 1104.163 301, 1104.286 301 C 1104.409 301, 1117.108 295.474, 1132.505 288.720 L 1160.500 276.440 1161 191.970 L 1161.500 107.500 1163.823 102.784 C 1166.976 96.382, 1175.644 88.665, 1182.753 85.931 C 1190.502 82.951, 1202.872 82.239, 1210.149 84.355 C 1220.942 87.492, 1228.361 94.679, 1231.393 104.932 C 1232.809 109.717, 1233 119.669, 1233 188.576 C 1233 264.306, 1233.064 266.998, 1235.027 273.351 C 1237.147 280.217, 1244.708 292.475, 1249.834 297.357 L 1252.834 300.215 1272.167 294.050 C 1282.800 290.660, 1292.939 287.434, 1294.698 286.882 L 1297.896 285.879 1294.555 279.690 C 1292.718 276.285, 1290.675 271.793, 1290.016 269.707 C 1289.132 266.911, 1288.768 244.830, 1288.631 185.707 C 1288.424 96.519, 1288.798 101.698, 1281.479 86.500 C 1266.169 54.707, 1225.089 40.863, 1192.285 56.442 C 1182.652 61.016, 1177.536 64.634, 1170.129 72.111 C 1166.748 75.523, 1163.832 78.132, 1163.650 77.908 C 1163.467 77.683, 1159.333 71.727, 1154.464 64.671 C 1149.595 57.615, 1144.699 51.202, 1143.583 50.421 C 1139.979 47.896, 1135.850 48.983, 1115.500 57.818 M 1341.500 57.646 C 1321.958 66.026, 1317.998 68.177, 1318.002 70.405 C 1318.004 71.007, 1319.358 73.075, 1321.013 75 C 1322.667 76.925, 1325.029 80.975, 1326.261 84 L 1328.500 89.500 1328.772 195.326 C 1328.940 260.787, 1329.403 301.028, 1329.984 300.826 C 1330.501 300.647, 1342.863 295.100, 1357.456 288.500 L 1383.987 276.500 1383.994 180.708 C 1384.001 75.553, 1384.060 76.704, 1377.967 63.266 C 1373.364 53.115, 1369.386 49.072, 1364 49.070 C 1362.625 49.070, 1352.500 52.929, 1341.500 57.646 M 1488 52.043 C 1471.859 56.202, 1452.402 68.224, 1440 81.702 C 1428.293 94.424, 1423.041 105.699, 1422.221 119.872 C 1421.635 130.003, 1423.044 137.101, 1427.510 146.500 C 1433.226 158.531, 1440.381 165.850, 1463.187 183 C 1502.541 212.593, 1521.089 231.257, 1524.502 244.696 C 1526.076 250.896, 1525.218 253.698, 1520.603 257.434 C 1517.067 260.295, 1516.270 260.500, 1508.657 260.500 C 1501.607 260.500, 1499.618 260.080, 1494 257.407 C 1485.392 253.312, 1473.425 244.163, 1461.669 232.690 L 1452.093 223.345 1432.297 236.143 C 1421.408 243.182, 1412.050 249.105, 1411.500 249.305 C 1410.035 249.837, 1414.824 256.305, 1424.029 266.230 C 1463.283 308.552, 1504.585 312.215, 1542.570 276.742 C 1554.645 265.464, 1562.621 252.948, 1565.492 240.769 C 1572.168 212.455, 1554.001 182.621, 1511.500 152.101 C 1486.183 133.921, 1470.037 114.485, 1470.010 102.154 C 1469.996 96.061, 1472.531 92.377, 1478.870 89.275 C 1483.873 86.827, 1484.636 86.721, 1489.629 87.768 C 1499.921 89.926, 1511.055 99.623, 1523.770 117.498 C 1527.112 122.196, 1530.033 126.594, 1530.261 127.270 C 1530.562 128.166, 1531.058 128.208, 1532.087 127.423 C 1532.864 126.831, 1541.695 120.388, 1551.710 113.104 L 1569.921 99.862 1566.210 93.853 C 1564.170 90.549, 1559.545 84.167, 1555.933 79.672 C 1536.345 55.296, 1512.699 45.678, 1488 52.043 M 405.113 52.485 C 390.591 55.771, 377.019 62.002, 366.257 70.324 C 353.513 80.179, 340.329 96.374, 332.736 111.500 C 328.820 119.302, 324.220 133.150, 321.838 144.312 C 318.877 158.179, 318.661 183.025, 321.375 197.500 C 331.249 250.168, 366.566 289.817, 411.987 299.227 C 424.085 301.734, 441.501 301.249, 453.500 298.072 C 493.689 287.433, 525.060 249.096, 532.522 201.505 C 534.607 188.209, 534.096 162.825, 531.506 151 C 520.969 102.903, 490.120 66.604, 449.427 54.421 C 441.948 52.182, 438.148 51.691, 426 51.394 C 415.817 51.146, 409.598 51.470, 405.113 52.485 M 394.344 88.107 C 382.296 90.300, 373.920 99.848, 369.877 116 C 367.714 124.638, 368.218 148.270, 370.819 160.259 C 379.676 201.071, 404.361 240.495, 431.245 256.762 C 451.298 268.895, 470.176 265.509, 478.857 248.222 C 483.795 238.389, 484.502 234.325, 484.464 216 C 484.434 201.086, 484.082 197.096, 482.083 189 C 476.639 166.958, 467.451 145.887, 455.747 128.610 C 448.444 117.830, 430.779 99.884, 422.898 95.238 C 412.698 89.226, 402.369 86.646, 394.344 88.107" stroke="none" fill="#e40c7c" fill-rule="evenodd"/></svg>