<svg clip-rule="evenodd" fill-rule="evenodd" height="2230" image-rendering="optimizeQuality" shape-rendering="geometricPrecision" text-rendering="geometricPrecision" viewBox="0.010000000000168097 -50.030000000000065 10755.539999999999 9642.74" width="2500" xmlns="http://www.w3.org/2000/svg"><g fill="#e41d37"><path d="M4382.16 6700.62l-.91-9.37-3.74-6.24-3.69-3.22-6.74-3.35-18.57-2.77-3.49.56h-10.19l-20.41 3.33-32.49 7.7-20.65 6.67-21.35 8.34-14.15 6.03-22.28 11.57-26.22 16.71-2.32 1.66-11.82 8.8-2.81 2.23-3.24 1.67-2.77 3.33-3.03 1.55-2.56 2.8-3.25 2.34-5.56 4.89-4.87 3.91-9.28 9.36-314.63 1387.78-4.65 12.03-3.94 6.69-2.55 2.22-1.86 3.35-7.19 4.9-8.81 1.77-6.05-1.77-4.87-4.34-4.4-5.01-5.81-13.26-.68-6.58-513.27-1427.1-4.63-13.26-8.35-18.82-4.18-6.66-7.43-6.58-4.63-1.56-8.6-1.67h-4.41l-7.18 1.01-12.3 3.89-134.58 63.68-245.96 117.25-6.25 3.8-28.53 13.36-6.28 3.79-30.15 13.79-6.5 4.46-31.8 14.37-15.09 9.47-6.25 7.13-5.35 11.01-4.18 15.04v13.7l4.18 13.35 4.18 7.8 3.03 3.33 1.84 3.24 2.55 1.66 3.73 2.67 9.97 6.69 17.41 6.68 20.18 4h34.81l3.48-1.22h64.51l3.46 1.22h5.59l3.46.46h5.35l16.01 3.21 12.06 2.91 17.17 6.57 14.4 8.35 3.46 3.88 3.26 3.25 8.34 12.23 306.76 834.56 9.96 26.59.47 4.34 295.62 795.46 12.75 32.52 7.66 11.13 6.04 4.9 3.25 3.22 4.87 2.46 11.6 4.35 17.62 2.77h6.97l3.49.57h9.98l3.93 1.1h6.49l5.34 1.56 1.41 2.35.69 9.46-.94 2.57v4.43l-.69 3.35v5.01l-.93 2.77v4.36l-.93 3.34v5l-.69 2.79v4.45l-.93 3.23v4.47l-.69 3.34v3.88l-6.04 45.43-11.6 60.24-15.31 71.82-12.54 45.87-7.18 20.49-12.54 30.4-2.31 3.34-5.59 10.57-12.3 20.51-13.67 16.02-16.02 15.92-21.35 16.03-3.93 1.68-6.98 3.9-4.39 1.67-3.25 2.24-21.81 7.77-27.15 7.13-12.54.66-3.46.35h-4.18l-3.25-.35-9.28-1.21-6.73-1.13-15.55-5.45-13.46-6.67-15.78-11.48-15.09-13.91-12.75-15.49-2.55-2.77-6.98-10.59-2.31-2.1-3.71-6.8-5.56-8.81-9.28-16.58-16.26-35.41-15.31-40.28-22.03-77.4-6.04-16.7-5.33-9.92-8.35-8.9-7.67-3.35-10.9-1.55-2.08.44h-8.59l-7.2 1.11-52.21 11.58-49.87 13.93-45.73 15.58-44.54 16.93-48.03 21.15-36.2 18.26-33.18 17.6-15.79 10.57-2.77 2.22-4.65 3.92-11.6 11.02-2.78 3.24-6.73 9.55-6.03 10.47-5.33 13.25-3.73 19.38v30.95l4.19 23.27 12.53 51.89 11.84 35.42 12.53 31.05 14.61 30.96 15.09 27.06 2.32 3.35 2.08 4.44 7.43 11.58 5.1 8.36 15.31 21.57 2.1 2.14 3.24 4.45 15.09 18.25 2.31 2.8 1.86 2.77 15.31 15.93 7.66 7.81 21.11 18.79 2.8 2.13 19.47 14.92 2.32 2.33 26.23 17.14 4.4 1.7 3.25 2.22 4.65 2.11 3.26 2.34 4.16 1.56 3.47 2.22 22.51 9.91 29.47 10.58 32.72 8.24 51.05 6.68h10.44l3.03 1.11h9.49l3.5.44h10.19l3.27 1.24h11.13l1.62-1.24h32.94l3.73-.44h6.02l3.24-1.11h6.52l3.7-1.02h5.8l38.99-5.66 38.96-9.92 5.59-2.22 22.49-7.8 34.81-15.36 26.22-14.49 17.64-11.55 2.31-2.25 13.01-8.36 23.66-19.36 27.85-25.94 16.23-18.83 3.25-3.21 1.85-3.35 3.03-2.9 19.03-24.71 2.08-2.79 21.58-32.06 8.58-14.93 11.6-19.92 13.01-26.62 3.94-7.68 7.88-17.69 19.26-54.79 689.83-2521.55zm3198.35 1932.51l73.71-43.21 34.61-24.83 2.28-1.66 3.3-2.25 2.78-2.78 3.01-2.22 16.5-14.37 10.86-9.91 1.61-2.87 5.13-4.47 11.15-12.02 3.01-3.34 11.59-13.8 2.05-2.78 4.69-6.13 2.06-2.67 26.26-40.55 18.11-35.74 15.04-38.85 15.32-50.88 16.95-68.49 12.98-63.12 13.2-82.41v-4.45l1.61-9.35v-4.46l.74-3.44v-3.8l.95-3.24v-3.89l.88-3.32v-4.45l1.61-9.48v-4.23l.74-3.33v-3.9l.73-3.34v-6.67l1.1-3.36v-6.01l.73-3.33v-6.68l1.18-3.35v-6.69l.66-2.66v-6.69l.95-3.34v-6.68l.88-3.22v-7.13l.95-3.33v-11.71l.74-2.67v-11.69l.66-3.24v-11.56l.95-2.91v-11.57l.88-3.35v-17.68l.73-3.36v-23.83l.96-2.67V7840l.88-3.35v-119.58l-.88-3.33V7684l-.96-2.77v-20.49l-.73-3.34v-19.27l-.88-3.34v-20.49l-.95-3.34v-19.25l-.66-3.46v-20.47l-.74-3.36v-10.36l-.95-3.32v-10.58l-.88-3.24v-10.67l-.95-3.35v-10.36l-.66-3.35v-9.89l-1.18-3.46v-10.46l-.73-3.36v-10.36l-1.1-3.44v-10.35l-.73-3.44v-10.49l-.74-3.32v-9.47l-.66-3.23v-7.24l-.95-3.23V7409l-.88-3.24v-7.12l-.95-3.34v-7.79l-.74-3.35v-7.69l-.88-2.78v-7.68l-.73-3.34v-7.24l-.88-3.35v-8.22l-.73-3.36v-7.23l-.88-3.35v-7.65l-.96-3.92v-7.1l-.95-3.49v-7.12l-.88-2.78v-6.69l-.95-3.66v-6.13l-.23-3.33v-6.7l-.95-3.32v-6.68l-1.17-2.58v-6.78l-7.63-61.92-1.17-5.01-2.35-17.14-8.07-44.2-11.15-47.11-10.7-37.39-14.6-40.54-13.71-30.96-13.64-27.6-3.75-6.13-5.35-10.58-11.81-18.26-6.01-10.45-13.5-18.83-2.27-2.22-4.4-6.58-2.57-2.22-4.18-6.69-27.36-30.82-33.22-32.75-33.15-27.63-2.57-2.34-11.8-8.11-2.57-2.24-15.11-11.12-2.57-1.57-44.07-28.84-23.18-9.92-24.57-7.22-31.32-5.47h-9.53l-3.3-1.22h-24.57l-3.23 1.22h-10.49l-11.81 1.58-4.83 1.21-6.31.44-25.01 5.57-7.7 2.13-12.76 3.44-34.77 12.14-19.99 8.91-7.18 2.67-6.51 3.88-11.13 5.02-6.5 3.9-13.22 6.02-6.5 3.9-4.65 1.68-21.11 12.69-12.99 7.12-35.05 21.04-111.82 69.7-74.25 55.33-2.79 1.59-25.29 22.69-5.58 5.12-2.08 3.34-9.5 8.81-2.34 3.32-8.12 7.13-23.89 28.18-2.32 2.22-19.03 24.39-2.09 2.22-15.55 23.07-2.32 2.32-27.14 43.21-2.09 4.33-2.09 2.8-2.31 4.34-3.95 6.13-2.55 6.12-2.1 3.23-2.32 4.46-9.98 18.8-15.06 32.74-15.1 35.4-11.14 29.28-14.61 41.43-22.73 80.84-16.72 77.38-15.32 91.31v3.9l-.7 3.23v3.9l-1.62 9.89v3.9l-1.62 10.03v3.9l-.93 3.23v4.44l-1.84 9.36v3.89l-1.63 10.03v6.56l-.92 3.34v6.14l-.93 3.9v6l-.94 3.35v7.12l-.45 3.35v6.55l-1.17 3.46v7.12l-.93 3.24v6.78l-.69 3.35v6.57l-.93 2.77v12.15l-.69 3.23v12.81l-.94 2.77v13.25l-.93 3.36v13.23l-.69 2.79v13.24l-1.16 3.26v26.03l-.47 2.8v28.71l-.93 3.35v74.04l-.69 3.47v24.26l.69 3.23v43.63l.93 3.46v44.19l.47 3.35v44.87l1.16 3.23v19.94l.69 3.46v19.37l.93 3.89v18.15l.94 3.34v18.16l.69 2.78v8.36l.93 3.32v8.26l.69 3.32v7.23l.93 3.35v8.25l1.17 2.68v8.34l.45 3.34v8.36l8.81 68.02 6.5 39.2 8.82 42.65 12.07 43.08 12.06 36.53 14.39 37.63 17.86 40.42 18.57 38.07 3.94 6.02 7.66 16.13 4.4 6.03 1.86 4.45 22.97 41.54 3.72 6.11 2.08 4.36 19.5 29.28 13.68 16.13 3.02 3.23 2.09 3.35 15.31 15.46 11.84 12.16 16.23 12.25 2.1 2.22 3.49 2.22 2.77 2.77 31.8 20.4 16.47 7.24 6.5 4.32 28.31 11.03 41.07 13.93 31.78 7.23 7.42.44 3.25 1.11h5.11l3.48.68h6.04l2.77 1.11h8.12l1.62-1.11h16.72l22.97-3.45 22.5-6.01 32.02-10.59 26.69-10.46 39.44-14.49 48.3-20.37 58.89-27.61 6.53-4.44 8.07-3.24 6.3-3.89 4.84-1.67 75.4-40.97zm-76.35-405.96l-.96 4.89-.44 5.56-16.28 78.05-14.15 57.46-17.16 55.22-16.21 43.77-17.9 39.87-3.96 6.11-3.45 7.7-4.18 6.1-3.74 7.69-12.54 19.26-2.27 2.33-8.88 11.6-3.88 3.34-1.91 3.33-10.86 9.36-6.96 6.24-4.7 2.12-2.49 2.12-14.16 6.67-12.78 3.23h-5.11l-1.62.57-3.71-.57-8.11-.58-13.47-4.32-10.67-5.46-12.06-8.36-3.72-4.01-3.01-1.56-4.87-5.45-9.52-9.91-2.08-2.79-9.05-12.24-9.99-16.04-2.09-3.78-2.08-3.34-4.42-8.8-4.17-6.67-9.29-19.38-16.47-38.18-16.69-48.23-16.02-56.87-14.61-61.48-14.4-74.61-.23-5.56-1.85-9.92-.69-5.56-1.17-4.9-.45-5.57-1.18-5.01-.68-5.45-.94-5-10.21-77.95v-6.13l-.94-2.78v-5.02l-.91-3.24v-5.56l-.93-3.32v-6.14l-.47-2.66v-5l-1.15-3.36v-6.01l-.72-2.8v-4.98l-.9-3.36v-6.11l-.72-2.68v-5.57l-1.15-3.9v-8.77l-.69-3.37v-8.89l-.7-3.23v-9.47l-.92-3.23v-8.91l-.7-3.46v-8.68l-.93-3.99v-8.82l-.92-2.66v-13.93l-.93-3.44v-16.93l-.93-3.32v-17.83l-.94-3.12v-17.82l-.69-3.9v-38.63l-.69-3.34v-102.89l.69-2.77v-40.42l.69-3.35v-16.47l.94-3.34v-18.27l.93-3.23v-17.26l.93-3.34v-13.8l.92-2.79v-8.8l.93-3.34v-9.47l.7-2.66v-9.45l.92-3.36v-9.34l.7-3.34v-8.78l.69-3.37v-8.92l1.15-3.31v-5.91l.72-3.35v-5.66l.9-3.35v-4.35l.72-3.32v-5.48l1.15-3.9v-5.42l.47-3.38v-5.1l.93-2.69v-6l.91-3.44v-5.45l.94-3.36v-5l2.55-16.16v-3.78l10.46-73.48 8.8-55.34 15.09-73.62 15.31-60.79 15.3-49.87 16.26-44.21 18.55-41.52 19.51-35.43 13.68-18.7 2.31-2.78 4.42-5.58 3.94-3.32 2.1-3.23 8.33-8.25 8.36-6.67 4.65-2.68 2.77-1.76 16.71-7.27 8.6-2.22h18.31l16.25 4.47 11.8 6.12 9.1 6.67 2.35 2.12 12.02 11.14 3.74 4.45 3.01 2.68 1.83 3.33 9.32 11.7 11.81 18.26 3.74 7.68 3.88 6 3.52 7.8 3.97 6.14 21.04 48.66 4.92 13.24 4.62 12.79 10.19 30.98 15.33 54.21 14.16 61.34 13.49 70.16.44 5.57 1.39 5.02.66 5.43.96 5.04.44 5.54 1.61 10.02.95 5.47 1.18 4.91 10.93 86.27v5.02l.95 3.46v5.33l.88 3.35v5.57l.73 3.32v5.02l.88 3.35v5.44l.74 3.36v5.45l1.1 3.46v4.99l.73 3.26v5.67l.73 3.22v8.23l.88 3.34v8.91l.96 3.24v10l.66 2.68v9.47l.95 3.34v8.24l.95 3.89v8.8l.88 3.34v11.14l.52 3.34v18.16l1.1 2.77v17.26l.95 3.22v17.6l.74 3.9v27.05l1.1 3.92v59.33l.73 3.22v11.03l-.73 3.36V7835l-1.1 3.33v27.61l-.74 3.23V7887l-.95 3.22v17.26l-1.1 3.24v17.71l-.52 3.31v11.03l-.88 3.35v9.46l-.95 2.67v9.47l-.95 2.78v9.36l-.66 3.24v9.46l-.96 3.32v8.94l-.88 3.32v8.23l-.73 3.36v5.44l-.73 3.35v5.01l-1.1 3.35v5.56l-.74 3.33v5.45l-.88 3.35v4.89l-.73 3.24v5.68l-.88 3.34v5.46l-.95 3.44v4.9l-.74 3.25v5.11l-2.49 15.91v4.47l-10.93 76.27-.95 5.11-.66 5.46-.96 4.9-.95 5.57-2.05 10.01-.44 5.59zm1172.66-1115.71l1.83-3.32 22.74-27.52 3.23-3.34 2.34-3.44 4.4-3.89 2.35-3.24 5.35-4.91 1.84-3.45 5.79-4.88 1.84-2.89 2.34-1.01 19.95-19.38 25.31-20.37 2.49-2.23 26.99-18.26 24.57-12.69 15.99-6.69 19.95-6.58 21.34-4.01h24.64l12.47 2.25 14.67 4.45 4.62 1.66 7.19 2.78 13.93 8.36 13.2 9.92 11.59 10.45 18.34 24.96 5.57 11.01 3.96 6.01 9.32 22.72 3 8.79 5.58 17.25 9.75 62.49v6.11l.88 3.24v5.56l.95 3.35v10.45l.66 3.36v27.6l-.66 2.78v7.8l-.95 3.35v6.66l-.88 2.79v7.68l-.73 2.78v6.57l-.66 3.35v7.68l-.96 2.79v7.24l-.95 3.32v6.58l-.88 3.46v7.13l-.95 3.77v6.02l-.66 3.45v7.13l-1.18 3.34v7.24l-.51 3.33v6.59l-.88 3.45v7l-.95 3.35v6.67l-.66 3.34v7.24l-1.18 3.23v7.23l-.73 3.34v6.57l-.88 3.34v7.24l-.74 3.35v6l-.65 3.35v7.79l-.96 3.23v7.24l-.95 3.23v6.12l-.88 3.35v7.67l-.96 2.89v6.69l-.66 3.11v7.24l-.95 3.44v7.03l-.95 3.33v6.69l-.66 3.35v7.24l-.73 3.32v6.57l-.89 3.35v7.12l-.95 3.24v7.24l-.66 3.32v6.7l-.95 3.34v7.24l-1.18 3.32v6.7l-.44 3.22v7.13l-.95 2.78v7.78l-.66 3.35v6.69l-.95 2.66v7.81l-.96 3.23v6.56l-.88 2.9v7.69l-.95 2.77v7.78l-.73 3.38v6.1l-.88 3.22v7.69l-.74 2.78v7.13l-.88 3.9v6.22l-.73 3.23v7.24l-1.17 3.34v6.58l-.67 3.35v7.22l-.95 3.23v7.24l-.95 3.34v6.59l-.44 3.32v7.24l-1.18 3.22v6.59l-.87 3.33v7.25l-.74 3.32v7.24l-.88 3.35v6.69l-.95 3.21v7.13l-.66 3.34v6.12l-.96 3.91v6.55l-.73 3.9v7.25l-.88 3.34v6.11l-.73 3.78v7.25l-1.18 3.23v6.14l-.66 3.32v7.15l-.73 3.44v7.56l-1.1 3.46v6.01l-.73 3.23v7.36l-.96 3.22v6.57l-.66 3.47v7.21l-.95 3.25v7.23l-.88 3.22v6.58l-.51 3.57v7.1l-1.18 3.24v6.69l-.88 3.33v7.12l-.51 3.23v7.24l-.88 3.34v6.67l-.95 3.35v7.13l-.66 3.36v6.1l-1.18 3.37v7.65l-.95 2.8v7.79l-.95 2.68v6.69l-.88 3.33v7.23l-.44 3.35v6.55l-.74 3.25v7.24l-.95 3.33v7.79l-1.17 2.68v6.67l-.67 3.34v7.13l-.73 3.34v6.58l-1.1 3.43v7.13l-.95 3.35v7.24l-.44 3.23v6.68l-.95 3.34v7.14l-.89 3.44v6.45l-.95 3.35v7.23l-.73 3.34v7.13l-.88 3.34v6.68l-.96 2.67v7.79l-.95 3.46v5.91l-.66 3.32v7.24l-.95 3.89v6.58l-.66 3.9v6.12l-.74 3.35v7.79l-1.17 2.67v6.68l-.66 3.34v7.13l-.95 3.34v7.12l-.66 3.36v6.57l-.96 3.43v7.25l-.66 3.23v7.12l-.95 3.33v6.69l-.95 3.35v7.12l-.88 3.34v6.69l-.96 3.33v7.12l-.73 3.46v7.02l-.88 3.46v6.55l-.73 3.23v7.24l-.89 3.44v6.03l-.95 3.22v7.79l-.66 3.36v7.12l-1.17 3.34v6.7l-.95 3.31v6.58l-.74 3.99v6.02l-.44 3.35v7.13l-.88 3.32v7.24l-.95 3.24v6.57l-.96 3.45v7.23l-.88 3.34v6.46l-.73 3.34v7.25l-.88 3.33v7.12l-.95 3.46v6.68l-.96 3.24v7l-.66 3.45v6.69l-.51 3.22v7.24l-1.1 3.45v7.12l-.95 3.23v6.69l-.96 3.23v7.36l-.88 3.21v6.01l-.73 3.35v7.23l-.66 3.46v7.58l-.95 3.34v6.01l-.96 3.32v7.25l-.66 3.33v6.7l-1.17 3.32v7.15l-.66 3.33v7.69l-.95 3.32v6.03l-.96 3.35v7.21l-.44 3.35v6.68l-.95 3.35v7.13l-.66 3.34v7.23l-1.17 3.24v6.68l-.74 3.23v7.22l-.88 3.47v6.56l-.95 3.34v7.13l-.66 3.32v19.39l1.1 5.89 5.35 8.91 1.62 1.24 2.56 2.1 4.18 1.79 13.72 2.68 16.21-1.56 16.94-4.57 22.74-9.9 403.96-223.48 5.58-4.9 2.56-4.56 2.06-8.12v-14.94l-.66-2.79v-3.87l-3.01-10.59-1.69-1.56-1.83-3.34-1.83-.55-2.57-2.79-11.15-3.9-10.19-2.11-9.54-.69-38.94-6-17.6-1.1-4.19-1.68-2.85-2.77v-13.82l.95-3.45v-7.13l.95-3.34v-7.12l.95-3.24v-7.8l.88-3.89v-7.22l.96-3.36v-7.13l.22-3.22v-8.45l1.17-2.79v-7.68l.96-3.25v-7.33l.66-3.23v-8.34l.95-2.68v-7.8l.88-3.34v-7.24l.95-3.23v-7.12l.66-3.45v-8.25l.74-2.76v-7.27l.95-3.33v-7.58l.66-2.77v-8.36l.95-3.43v-7.04l.88-3.33v-7.78l.96-3.36v-7.55l1.17-3.47v-7.24l.44-3.22v-7.25l.73-3.78v-7.79l.88-3.34v-7.8l.96-2.78v-7.69l.95-2.79V8206l.66-3.34v-7.02l1.17-3.35v-7.23l.96-3.32v-7.8l.44-2.68v-8.24l.88-3.45v-7.12l.73-3.23v-7.35l1.17-3.23v-8.46l.96-3.24v-7.11l.44-3.35v-7.24l1.17-3.23v-8.35l.66-3.34v-7.13l.73-3.34v-7.1l.89-3.38v-8.23l.95-3.32v-7.25l.95-3.35v-7.21l.88-3.35v-8.23l.74-3.36v-7.23l.88-3.23v-7.12l.51-3.35v-7.24l1.39-3.34v-8.23l.44-2.89v-7.71l.96-2.76v-7.82l.88-3.22v-7.68l.95-3.34v-7.79l.73-3.35v-7.21l.88-3.24v-7.81l.74-3.21v-7.13l.66-3.45v-7.13l1.17-3.91v-7.78l.73-3.35v-7.01l1.1-3.34v-7.79l.74-2.91v-8.23l1.17-3.22v-7.25l.66-3.21v-7.26l.51-3.33v-7.7l.88-2.88v-8.24l.74-3.33v-7.24l.88-3.35v-7.12l.95-3.35v-8.35l.88-3.34v-7l.95-3.35v-7.23l.74-3.36v-8.23l.66-3.34v-7.24l.95-3.23v-7.35l1.17-3.33v-8.14l.67-3.34v-7.24l.95-3.23v-7.22l.66-3.35v-7.69l.95-3.9v-7.22l.66-3.34v-7.24l1.18-3.24v-7.12l.73-3.46v-8.12l.88-3.45v-7.13l.73-3.34v-7.24l.66-3.33v-8.25l1.4-3.34v-7.24l.51-2.66v-7.81l.88-3.2v-7.82l.73-3.89v-6.67l.96-3.24v-7.78l.88-3.36v-7.79l.95-3.22v-7.13l.88-3.32v-7.27l.73-3.87v-7.02l.88-3.35v-7.91l.74-3.22v-7.25l.73-3.33v-7.7l.88-3.23v-7.9l.95-3.33v-7.03l.88-3.32v-7.36l.74-3.34v-8.13l.95-3.33v-7.23l.88-3.47v-7.13l.73-3.22v-8.35l.89-3.22v-7.24l.95-3.35v-7.24l.66-3.23v-8.35l.95-3.35v-7.21l1.17-3.26v-7.12l.45-3.32v-7.25l.95-3.34v-8.24l.66-3.33v-7.24l.73-3.34v-7.13l.95-3.45v-8.24l1.18-3.23v-7.24l.88-3.34v-7.13l.73-3.35v-7.78l.88-3.35v-7.68l.96-3.22v-7.25l.73-3.44v-8.13l.66-2.89v-7.69l.66-3.33v-7.13l1.17-2.77v-8.37l.74-3.22v-16.04l1.1-3.89v-14.93l.95-3.34v-16.59l.51-3.32v-21.06l.88-3.23v-44.89l-.88-2.76v-8.25l-.51-3.33v-9.58l-4.84-31.41-7.63-29.28-11.44-29.27-19.21-38.77-2.35-3.34-1.84-3.9-2.78-3.23-1.84-4.33-1.9-2.89-2.35-4.45-2.27-3.36-1.84-3.9-19.95-30.83-3.08-5-2.05-2.8-8.58-12.23-2.57-2.79-6.01-9.91-28.75-35.86-1.62-2.89-3.52-2.68-1.83-2.79-3.3-2.77-2.05-2.78-3.74-3.91-1.84-2.67-3.22-3.34-1.91-2.68-3.23-2.87-1.61-2.69-23.91-22.17-3.52-5-30.58-25.49-2.35-2.22-20.39-13.82-2.79-2.11-18.11-11.57-19-9.48-25.74-11.03-24.43-6.11-5.5-.56-5.13-1.67h-9.31l-3.23-1.01h-16.94l-3.45 1.01h-5.79l-8.36 1-17.17 4.57-17.16 6.01-18.63 10.02-12.25 8.81-3.3 1.78-12.03 10.34-17.38 16.7-2.12 2.67-25.01 23.84-2.35 3.32-25.08 23.72-1.84 2.8-12.54 11.7-2.05 3.33-10.71 9.8-1.61 2.89-10.2 9.35-1.83 2.8-10.93 10.01-2.13 3.35-9.75 9.22-1.83 2.8-10.71 10.02-2.06 3.34-9.97 8.79-1.83 3.45-10.71 9.92-2.06 2.68-9.97 9.44-1.91 2.68-10.85 10.02-2.13 3.34-10.63 9.92-2.13 2.89-12.32 11.46-1.83 3.34-26.19 24.96-1.68 2.66-24.57 23.28-3.45 4.44-22.96 21.6-3.74 2.8-8.8 4.89-7.7 2.24h-7.19l-9.02-2.8-7.7-6.57-4.84-9.46-68.21-163.68-16.94-34.3-10.19-16.7-2.35-2.67-4.62-6.02-2.57-3.32-2.34-2.91-3.67-3.78-2.13-2.78-2.27-1.11-6.31-6.7-14.15-10.45-4.62-1.68-3.01-2.22-9.32-3.91-15.76-4.88-19.51-3.35h-13.65l-21.34 3.35-19.29 4.88-17.82 6.13-257.14 115.7-109.06 48.1-22 11.57-15.55 10.47-11.36 10.47-4.41 5.68-2.34 2.68-2.79 4.33-3.01 8.91v12.24l3.01 10.02 5.36 7.69 8.14 8.79 12.24 7.13 9.98 4.02 11.37 2.11h15.32l3.45 1.1h25.6l3.22-1.1h22.96l3.52-.55h22.74l3.23-1.01 6.01 1.01h15.33l3.22.55h5.36l17.16 3.34 15.77 4.33 17.16 9.03 17.9 13.25 12.76 13.13 3.45 2.91 6.74 9.35 2.79 2.22 3.23 6.57 8.36 12.7 9.97 22.27 8.58 25.94 5.14 26.49.44 11.7 1.17 2.78v11.59l.95 3.23v214.13l.66 3.33v233.37l.74 3.34v234.38l.88 3.47v233.92l.95 2.68v234.06l.73 3.33v233.28l.88 3.45V8789l.96 3.46v4.9l2.27 6.68 2.13 2.68 2.79 4.57 2.49 2.1 3.52 2.77 5.35 2.69 9.54 1.66h12.47l5.35-1.11 14.16-4.78 14.88-7.34 5.28-3.91 8.88-4.89 15.77-10.6 9.02-4.89 15.33-10.57 9.24-5.01 15.62-10.48 8.51-4.99 16.06-10.36 9.02-5.12 15.55-10.48 9.31-5 15.26-10.47 8.87-5.02 15.55-10.46 9.24-5.01 15.55-10.47 9.09-4.88 10.64-7.24 16.72-10.03 21.34-14.35 2.79-2.25 12.32-9.35 6.68-5.56 6.52-9.47 3.23-6.66 2.35-9.93V7357.64l1.17-2.77v-12.8l.66-3.33v-11.03l.95-3.22v-3.79l.96-3.47v-4.33l.88-3.35v-3.9l1.39-10.01v-3.78l6.75-39.32 4.84-22.59 4.18-13.36 11.15-22.17 17.67-31.95 19-28.28 16.72-22.73zm-5756.2 1617.86l51.28-30.5 89.09-50.23-18.33-23.94-2.08-3.21-39.68-51.46-2.34-2.11-3.69-5.56-2.32-2.68-6.97-10.69-2.32-2.11-4.41-7.24-8.34-11.01-7.9-12.7-5.57-8.9-3.02-6.24-3.94-5.92-15.79-30.95-4.39-8.89-13.7-31.53-11.13-34.85-145.01-637.23-231.58-1005.44-11.37-45.31-2.79-6.69-3.94-5.02-4.4-3.9-9.28-3.22h-10.26l-3.49-.56h-83.05l-3.25-.57h-82.37l-3.24-1.1h-83.3l-3.25-.55h-83.54l-3-1.12h-83.54l-3.01-.55h-83.3l-3.48-1.11h-57.54l-.24 2.21-57.32 71.38-2.08 2.8-20.65 26.05-2.1 2.1-11.37 14.92-2.31 2.22-11.37 14.92-2.09 2.13-11.37 15.03-2.56 2.12-179.82 227.93-1.86 3.33 1.63.56h512.79l3.49 1.12h11.37l16.92 2.76 12.54 3.92 8.12 3.78 10.21 6.69 6.49 7.11 2.56 2.79 6.97 10.01 4.87 10.59 8.57 25.39 22.52 86.73 8.81 33.95 38.98 161.45 5.35 24.73.45 7.24.7 3.46v4.88l.93 3.34-.93 5.46v7.24l-1.15 7.79-3.48 8.8-6.97 9.92-10.92 11.14-6.71 4.32-2.79 2.35-20.66 12.57-11.36 5.57-6.49 3.9-21.82 9.91-6.26 3.9-19.96 9.47-6.27 3.34-19.72 9.34-6.74 3.91-21.34 9.91-6.49 3.9-19.97 9.35-6.49 3.89-19.48 8.8-6.74 3.91-19.71 9.45-6.49 3.35-21.59 10.45-6.49 3.91-19.72 8.92-6.28 3.78-11.6 4.89-35.5 21.04-43.39 24.94-56.39 33.18-53.81 37.53-3.25 1.79-20.43 14.91-3.25 2.12-23.21 17.82-3.25 3.23-3.24 1.67-23.9 20.6-32.01 29.72-2.32 3.23-4.42 3.9-2.08 3.46-3.94 3.32-6.96 9.25-3.25 2.92-14.16 19.9-3.01 4.34-3.25 4.47-2.79 4.91-3.94 6.21-5.34 10.92-2.31 2.89-9.52 21.49-9.05 25.94-6.72 26.74-6.73 38.08v5.54l-.7 3.38v6.55l-.93 2.78v6.57l-.69 3.46v19.37l-.93 3.89v46.88l-.7 1.66.7 2.25v12.24l.93 3.22v11.58l.69 3.46v5.34l.93 3.46v3.78l1.63 10.01v3.92l6.49 37.05 7.66 31.42 9.27 31.06 13.7 37.52 12.75 29.29 20.2 40.43 19.72 33.17 23.65 36.08 2.32 2.11 5.11 8.34 2.55 2.24 2.8 4.88 15.54 19.38 2.32 3.35 16.95 19.94 3.25 3.32 1.62 2.79 3.46 2.67 1.86 2.78 23.45 24.84 30.63 29.96 3.24 1.66 5.33 5.47 3.25 2.22 5.34 5.57 3.01 1.67 3.73 3.77 27.84 22.16 2.55 2.36 22.27 15.35 2.31 2.23 34.82 22.7 38.75 22.74 4.87 2.21 6.25 3.91 4.42 1.44 6.73 4.01 21.58 9.78 11.37 5.68 20.89 8.36 8.81 4.22 19.48 6.26 12.77 5 38.75 11.59 38.99 8.79 43.85 6.67h5.33l3.24 1.13h5.35l3.25.45h5.11l3.24 1.11h9.51l3.25.55h21.34l3.49 1.22h9.05l1.85-1.22h22.97l3.49-.55h7.64l3.27-1.11h5.32l3.25-.45h4.88l3.48-1.13h5.11l19.48-4 18.33-6.01 19.97-10.36 8.11-5.79 3.25-1.57 14.39-11.56 25.98-24.38 19.96-22.07 3-3.32 9.05-11.6 2.1-2.21 8.58-11.14 2.55-2.78 5.35-8.13 2.31-2.33 6.73-10.47 2.6-2.78 8.81-12.81 2.08-2.68 6.27-9.47 11.14-13.23 2.09-2.23 4.63-7.24 8.13-9.78 6.49-5.04 6.97-2.11 7.18.45 7.21 3.33 6.02 5.45 2.1 3.37 25.74 33.73 2.34 2.77 35.96 47.11 2.1 2.77 22.72 28.73 1.87 3.35 35.26 42.99 2.07 3.31 9.99 10.6 2.55 2.11 4.65 2.78 2.32 2.23 9.98 4.01 10.9 2h11.59l15.57-2.67 15.54-6.13 64.5-33.18zm-437.67-369.43l-.68 3.32v4.9l-5.09 23.83-5.81 18.15-13.46 31.07-6.73 11.14-1.62 3.79-9.51 16.03-22.98 33.84-2.09 2.12-7.18 11.04-2.1 2.22-8.81 13.35-2.32 2.25-5.35 8.12-2.31 2.34-8.81 11.45-2.11 2.33-4.62 6.03-13.23 12.24-6.04 3.36-2.55 2.09-7.19 3.91-11.14 3.79h-15.31l-19.96-6.14-12.54-7.01-5.08-2.78-2.56-2.22-16.95-12.14-2.55-2.23-41.52-35.52-3.49-2.68-45.71-41.96-5.11-5.58-32.24-32.06-2.1-2.79-3-2.68-2.1-2.87-3.7-3.91-1.87-2.68-4.41-3.33-1.62-3.35-3.25-2.79-1.86-2.77-4.16-3.79-1.87-2.9-3.48-2.65-1.62-2.78-2.32-2.8-29.94-38.74-29.46-44.77-1.86-4.34-4.17-6.67-1.87-3.92-2.31-3.34-1.87-4.33-3.94-6.23-2.07-4.24-2.1-2.8-23.9-50.87-16.94-45.44-13.7-49.2-8.11-44.32v-4.9l-.93-2.78v-4.46l-.45-3.33v-4.36l-1.18-3.32v-13.26l-.93-3.35v-17.14l.93-2.78v-19.81l6.74-36.65 8.12-27.61 11.14-24.84 16-26.04 17.88-22.6 7.43-6.68 2.07-3.35 16.02-15.47 3.25-1.67 5.57-5.57 2.78-1.67 3.71-3.9 3.03-2.11 22.97-16.59 5.1-2.8 18.1-12.13 38.03-20.49 7.91-3.32 6.25-3.92 73.56-31.48 55.91-20.95 9.53-2.22h17.16l14.4 2.66 8.81 3.46 8.36 4.22 9.98 7.35 1.83 2.68 2.8 2.22 3 5.57 4.19 12.69 68.92 298.18 28.07 130.61 24.6 126.04 2.07 8.26 1.62 13.8zm7547.76 455.72h17.6l3.01-.66h8.58l19.51-2.11 23.91-5.02 56.18-15.36 259.41-90.2 104.15-37.62 20.46-8.35 36.16-16.03 27.13-13.82 26.04-15.47 15.55-11.14 3.22-1.56 15.55-13.37 13.86-13.24 2.13-2.66 4.91-4.57 10.2-12.71 2.27-2.78 11.66-17.59 9.68-17.14 8.59-19.39 7.7-22.7 5.79-23.83 5.57-33.64v-149.86l.67-3.34v-166.13l.95-3.11v-166.03l.95-3.44V7756.4l.88-3.25v-166.01l.74-3.33v-165.79l.87-3.36v-166.02l.96-3.22v-24.39l-.96-3.34v-21.03l-2.49-27.18-1.17-5.02-1.4-10.79-1.17-5.13-2.12-17.14-11.59-45.99-5.06-14.8-4.92-12.69-5.57-16.16-22.96-49.1-3.66-6.56-2.13-4.58-2.28-2.66-1.68-4.46-4.18-6.22-2.06-4.24-1.83-3.35-2.35-3.89-2.34-3.34-2.57-4.45-3.45-4.35-2.78-5.1-2.79-4.25-3.23-4.56-2.79-3.9-5.13-8.79-27.14-35.43-2.05-2.77-27.21-32.63-3.01-2.77-2.05-3.34-3.23-2.12-1.68-3.34-5.06-4.47-1.84-2.89-5.65-4.9-2.05-3.23-5.35-5.11-2.28-3.11-34.83-34.42-9.98-9.9-3.23-2.22-19.73-19.38-3-1.66-11.37-11.16-3.23-2.11-6.3-6.12-3.23-2.13-6.75-6.66-3.45-1.67-2.56-3.35-39.02-33.18-2.57-1.66-78.18-63.02-3.23-2.8-91.38-63.01-3.3-2.22-62.2-42.55-3.22-1.77-18.78-13.82-3.22-1.56-40.2-29.27-3.22-1.79-54.57-41.43-2.27-2.2-3.23-2.23-36.67-29.85-29.71-26.06-27.86-26.5-1.84-2.89-10.19-9.35-1.91-2.68-3.01-2.77-12.03-13.91-3-3.25-2.13-2.89-3.01-2.67-9.09-12.04-2.05-2.34-12.54-17.69-4.41-8.23.52-5.59 3.89-8.34 8.36-13.7 8.36-10.02 20.46-19.93 4.84-3.89 5.79-6.14 4.18-11.02-.66-11-5.13-13.38-7.7-8.78-7.41-6.15-2.79-2.1-11.58-5.57-14.6-3.89-15.77-1.13-12.1 2.23-38.5 17.15-62.64 28.72-6.3 3.9-11.37 5.56-6.75 3.9-11.07 4.9-6.75 3.9-11.15 5.02-6.53 3.88-9.68 3.79-6.53 3.9-7.84 3.89-6.53 3.92-4.4 1.65-6.53 3.92-6.23 2.77-6.53 3.67-4.4 1.8-6.53 3.88-4.84 1.58-6.53 4.44-4.1 1.66-6.75 3.91-6.01 2.78-6.75 3.91-4.4 1.54-6.31 3.9-26.7 12.69-6.45 3.34-30.44 13.91-6.23 4.36-18.12 8.34-19.51 11.6-5.06 2.76-6.52 5.02-3.67 2.78-4.69 3.8-6.9 8.89-2.35 6.02-1.39 7.7.44 7.9 1.61 5.43 4.19 9.93 5.35 8.46 8.14 10.91 1.83 2.79 56.84 60.24 43.2 44.86 32.2 32.74 26.26 25.94 3.22 1.57 11.37 11.13 31.32 28.16 2.56 2.22 31.32 26.63 2.57 2.11 30.65 23.71 2.5 2.33 20.46 15.49 2.27 2.12 47.6 36.06 2.79 2.12 79.58 59.68 2.56 2.34 3.01 1.56 90.28 68.71 2.57 2.13 3.23 1.66 64.69 51.44 2.34 2.24 3.23 2.22 2.79 2.77 3.3 1.68 3.66 3.78 3.01 2.24 2.86 2.78 3.01 1.65 3.67 4.46 3.22 1.68 3.52 3.89 3.45 1.56 2.35 3.34 3.44 1.68 3.53 3.9 3.22 1.66 2.79 3.34 3.01 1.55 60.58 53.78 16.42 15.49 13.06 13.7 2.57 2.77 11.81 16.15 6.74 14.93 1.84 15.48-.96 6.1-3.44 10.47-1.4 1.56-2.12 4.58-8.37 10.9-11.07 10.03-3.3 3.33-39.39 27.62-4.69 2.34-4.18 3.34-5.06 2.22-4.4 3.23-14.45 8.79-122.04 68.04-24.57 14.48-10.93 6.02-41.29 25.92-19.21 13.36-13.94 10.04-3.01 2.77-3 1.44-34.84 27.73-31.32 29.28-1.91 2.8-4.18 3.89-1.61 2.69-4.18 4-2.05 2.66-3.96 3.35-9.54 12.8-2.27 2.12-17.16 22.15-5.36 8.25-7.19 10.13-19.72 31.39-12.55 23.83-16.94 34.29-17.82 41.33-15.11 41.52-21.34 67.59-16.28 62.02-16.65 75.72-12.32 64.57-6.24 42.64v3.92l-1.68 10v3.78l-1.84 9.38v4.57l-1.39 9.89v3.91l-1.61 9.9v6.58l-1.18 2.89v8.23l-.66 3.34v8.25l-.95 3.32v8.79l-.95 3.35v7.82l-.88 3.33v8.25l-.52 3.31v8.82l-.88 3.32v29.31l-1.17 3.44v37.64l-.74 2.56v15.14l.74 3.23v20.48l1.17 2.68v20.49l.88 3.43v20.39l.52 3.33v8.91l.88 3.24v6.58l.95 3.32v7.26l5.79 53.09 1.18 4.47.66 6.12 1.17 4.33 1.39 11.59 7.19 38.75 11.15 46.44 32.27 102.42 16.21 41.98 16.06 34.28 3.96 7.7 2.71 6.55 1.47 1.91 2.05 3.78 17.83 30.41 19.51 28.72 11.36 14.93 2.13 3.34 16.21 18.81 15.11 16.59 12.54 12.8 3.45 1.68 6.01 6.44 9.31 7.25 2.57 2.35 3.45 1.42 2.56 3.46 20.18 13.82 22.73 12.68 14.37 6.24 6.09 3.24 22.74 7.12 34.1 7.24 7.41.55 3.23 1.23h6.3l3.01.33h5.06l3.52.66h15.11l3.67 1.13h28.09l1.17-1.13zm-2.79-448.48l-1.17-4.58-1.39-11.58-1.18-4.9-1.39-11.58-.88-5.13-3.74-28.16v-5.56l-.66-3.24v-5.57l-.73-3.22v-5.57l-.74-3.34v-9.35l-1.1-2.89v-12.15l-.73-3.78v-11.13l-.88-3.34v-16.58l-.95-2.79v-34.31l-1.18-3.22v-20.61l1.18-3.21v-46.44l.95-3.34v-20.94l.88-3.44v-15.36l.73-3.36v-10.57l1.1-3.44v-10.37l.74-2.78v-11.57l.73-3.36v-6.67l.66-2.8v-6l.95-3.34v-5.57l.66-3.24v-5.65l1.18-3.24v-6.25l.95-3.11v-5.57l.88-2.77v-6l.73-3.47v-5.46l.66-3.34v-5.46l.74-3.31v-6.03l1.1-2.91v-6l.73-3.35v-5.57l1.84-8.77 2.12-22.16 7.19-48.1.95-8.82 9.68-62.03 1.91-9.46.44-6 4.62-24.27.95-5.45 22.74-116.36 25.3-110 9.54-30.52 6.67-17.58 14.38-32.08 8.14-16.03 18.11-30.51 19.51-27.06 3.23-2.79 2.05-2.78 3.08-2.78 1.62-2.67 3.44-2.77 1.84-3.37 14.15-12.58 10.49-8.46 8.8-4.9 12.98-7.79 20.91-9.92 19.72-5.46 8.36-1.76h14.38l13.2 3.9 9.98 5.45 10.92 11.68 6.02 8.8 6.3 12.7 3.89 12.69 4.18 20.61 1.18 12.13v15.47l.95 3.35v6.68l-.95 2.67v147.22l-.66 3.32v146.97l-.52 3.34v146.65l-1.17 3.34v147.08l-.66 3.35v146.98l-.95 3.45v146.54l-.88 3.35v108.87l-.74 3.44v15.38l-1.1 3.46v9.9l-.51 3.23v6.78l-.95 2.68v6.69l-5.5 32.51-7.93 24.5-9.97 21.37-9.31 13.91-2.5 2.89-4.4 5.47-3.96 3.35-1.91 3.24-6.67 5.43-10.93 10.15-3.52 1.44-2.49 2.34-8.58 4.99-2.35 2.13-20.39 10.57-23.47 7.8-10.63 1.56-3.08 1.22h-23.62l-18.77-2.78-24.21-9.46-14.15-8.23-15.99-11.58-10.86-11.25-21.41-24.73-17.82-26.6-14.38-28.18-10.49-29.28-7.19-29.96-8.35-45.87zm-3480.45 231.14l3.48-4.57 2.31-2.11 1.85-5.55.47-9.37-3-9.46-6.04-8.36-6.49-4.34-8.36-2.79-50.58-7.56h-4.41l-3.48-1.33h-4.18l-3.24-.46-17.88-1.79-6.27-2.65-5.1-4.47-4.39-5.43-5.12-11.69-3.02-17.05v-21.05l.93-3.35v-6.09l.93-2.8v-6.01l.92-3.36v-6.12l.46-3.34v-6.01l1.17-2.78v-6.13l.93-3.35v-5.45l.7-3.22v-6.79l.93-3.35v-5.45l.93-3.33v-5.58l.69-3.23v-5.57l.7-3.32v-6.68l.92-3.36v-5.46l.93-3.2v-5.6l.7-3.32v-6.02l1.17-2.77v-6.68l.69-3.35v-5.58l.93-3.33v-5.57l.69-3.79v-5.57l.93-3.33v-6.02l.93-3.43v-5.92l.7-2.89v-5.99l.93-3.35v-6.58l1.14-2.77v-6.14l.69-2.69v-6.11l.48-3.35v-5.45l1.15-3.35v-6.67l.71-3.34v-5.46l.92-3.32v-5.59l.93-3.33v-5.56l.93-3.23v-6.8l.69-3.24v-5.55l.93-3.34v-5.47l.69-3.32v-5.45l.71-3.92v-6.12l.92-3.23v-6.13l.92-2.68v-5.65l.93-3.35v-6.12l.94-3.23v-6.01l.69-3.45v-5.57l.93-3.22v-6.04l.46-3.44v-6.57l1.16-2.68v-6.23l.94-2.67v-6.13l.92-3.23v-5.58l.46-3.32v-6.58l1.17-3.32v-5.68l.7-3.25v-5.57l.93-3.31v-5.48l.93-3.32v-6.69l.69-3.35v-5.44l.93-3.36v-5.45l.93-3.45v-6.02l.69-2.77v-6.69l.93-3.24v-5.65l.69-3.24v-6.25l.93-3.11v-5.57l.7-2.77v-6.58l.93-3.99v-5.47l.69-3.35v-5.44l1.17-3.45v-5.91l.91-3.46v-6.1l.71-3.14v-5.57l1.16-3.44v-5.47l.68-3.44v-6.55l.48-3.25v-5.68l.93-3.23v-5.57l1.16-3.21v-5.57l.68-3.46v-6.46l.94-3.35v-5.43l.47-3.36v-5.58l1.62-3.32v-6.03l.22-2.88v-6.57l1.17-3.35v-5.57l.45-3.32v-5.46l.93-3.91v-5.56l1.17-3.33v-6.03l.69-3.32v-6.14l1.17-3.33v-5.47l.46-3.23v-6.68l.92-2.79v-5.56l.94-3.22v-6.13l.93-3.33v-5.68l.46-3.23v-6.14l.93-3.33v-6.02l.93-3.23v-5.56l.93-3.33v-5.57l.93-3.35v-6.57l.69-3.35v-5.45l.69-3.34v-6.1l1.17-2.8v-5.57l.7-3.78v-6.25l.93-3.2v-5.48l.91-3.33v-6.13l.71-2.77v-5.46l.69-3.9v-6.69l.94-2.77v-5.46l.69-3.91v-5.57l1.14-3.2v-5.58l.72-3.34v-6.57l.91-2.89v-6.12l.92-3.23v-5.57l.7-3.35v-6.56l.94-3.36v-5.57l.71-3.32v-5.47l.91-3.33v-5.56l.93-3.24v-6.68l.93-3.24v-5.45l.92-3.44v-5.57l.7-3.46v-6.01l.93-2.78v-6.58l.69-3.33v-5.47l.93-3.33v-6.02l.69-2.89v-5.91l1.18-3.44v-6.03l.69-3.87v-5.58l.93-2.78v-6.02l.94-2.89v-6.01l.68-3.33v-6.59l.7-3.34v-5.56l1.17-3.34v-5.45l.45-3.34v-6.7l1.17-3.34v-5.43l.7-3.35v-5.47l.92-3.32v-5.57l.93-3.22v-6.7l.7-3.34v-5.57l.69-3.33v-5.57l1.15-3.34v-5.45l.71-3.34v-6.7l.69-3.21v-5.56l1.15-3.35v-6.03l.71-3.32v-5.57l.91-3.35v-5.91l.94-3.32v-6.13l.68-3.35v-5.57l.94-2.89v-6.01l.93-3.34v-6.55l.93-2.8v-6.11l.69-3.24v-5.56l.69-3.35v-5.45l.94-3.35v-6.69l.68-3.24v-19.35l-.68-3.35v-17.69l-.94-3.34v-5.01l-.69-3.35v-4.9l-.69-3.33v-5.03l-.93-3.22v-5.67l-3.7-19.37-.7-6.01-9.04-40.99-12.54-42.53-1.86-2.8-7.66-21.48-13.44-31.06-17.42-34.3-19.26-31.96-20.41-30.5-2.31-2.22-2.56-5-19.02-23.83-2.33-2.7-26.22-28.82-29.47-29.29-3.24-1.55-3.73-3.9-3.25-1.68-3.46-3.77-3.04-2.24-3.69-4-3.25-1.67-3.96-3.81-23.42-17.14-2.56-2.22-27.14-18.26-5.35-2.77-4.18-2.8-9.27-4.9-6.27-3.9-18.56-7.24-22.27-5.45-6.49-.66-9.52-2.12h-21.12l-3.48 1.11h-7.42l-3.73 1.01h-5.78l-26.44 6.11-26.25 9.92-25.52 13.36-19.96 14.92-2.31 2.25-3.01 2.19-3.02 2.8-3.24 1.56-3.72 3.89-3.01 1.79-3.48 3.78-3.25 2.23-3.49 3.34-3.48 2.22-3.47 3.9-3.02 2.13-3.71 3.34-3.24 2.11-3.73 4.02-3.01 1.65-3.49 3.8-3.25 1.76-3.47 3.81-3.25 2.21-3.7 3.34-3.25 2.12-3.48 3.9-3.26 1.67-3.72 3.89-3.24 2.23-3.48 3.34-3.01 2.22-3.73 3.35-3.24 2.12-3.47 3.88-3.25 1.57-3.48 4.02-3.49 2.11-3.7 3.9-3.03 1.67-3.49 3.78-3.46 1.67-3.49 4.01-3.24 1.56-3.26 4.46-3.24 1.54-3.72 3.91-3.01 1.78-3.72 3.8-3.26 1.67-3.69 3.87-2.8 2.23-3.69 4.01-3.25 1.58-3.72 3.88-3.01 1.56-3.97 3.89-3 2.24-3.49 3.79-2.77 1.77-4.18 3.79-3.03 2.22-3.7 3.34-3.01 2.23-3.96 3.24-2.77 2.21-3.94 4.02-2.79 1.67-3.95 3.8-3.02 2.22-3.95 3.44-2.77 2.11-3.95 3.89-3.02 1.56-3.72 3.9-3.01 1.67-3.48 3.8-3.25 2.33-3.94 3.79-3.01 1.79-3.48 3.89-3.02 1.56-3.95 3.9-3.01 2.22-3.49 3.35-3.25 2.1-3.69 3.9-3.04 1.78-3.7 3.8-3.03 1.66-3.7 3.89-3.25 2.11-2.78 2.8-4.88 3.9-29.71-36.5-2.55-2.26-6.94-8.8-2.32-2.22-13.7-18.25-2.32-2.23-48.03-63.03-1.86-2.23-8.82-11.69-2.31-2.67-2.1-2.67-23.66-27.71-3.01-3.35-2.1-3.33-4.88-3.91-2.08-2.78-8.11-7.81-2.1-3.33-7.18-6.57-1.87-3.23-31.56-28.74-3.46-2.88-9.53-7.67-2.31-2.14-16.02-10.67-16-7.68-23.44-8.25-22.73-3.9h-14.63l-2.08-.55-16.24 1.65-22.75 4.35-19.96 6.7-36.41 16.01-12.53 7.79-2.56 1.57-3.03 2.33-2.53 2.7-3.49 1.65-24.83 24.5-3 1.56-21.58 20.94-3.25 2.34-21.35 20.93-3.03 1.66-21.58 20.49-3.01 2.13-22.27 22.16-3.25 1.67-50.11 48.76-3.25 1.56-50.35 48.76-3.25 1.56-3.48 3.88-16.95 14.37-2.78 2.34-6.49 3.24-6.28.66-6.03-2.33-7.89-7.69-9.28-13.24-4.64-9.46-3.93-6.12-23.21-45.9-17.88-32.6-22.73-38.08-18.78-25.51-1.64-2.89-12.08-14.26-2.07-2.23-2.1-2.78-19.48-19.91-5.8-6.69-14.16-11.04-2.77-2.78-12.53-9.34-7.67-4.01-12.53-2.69-12.75 1.13-15.09 3.89-14.16 5.57-68.45 40.31-33.63 18.26-12.3 7.13-4.42 1.79-6.26 3.77-9.97 4.46-6.26 3.88-11.38 4.91-6.5 3.92-9.5 4.44-6.74 3.78-9.52 4.56-6.5 3.78-199.77 95.78-9.27 6.12-2.34 2.1-3.24 1.79-3.7 3.78-3.25 1.68-1.17 2.22-1.84 2.11-4.42 6.68-3.48 8.92-.46 6.55-1.16 3.24 1.16 6.69v4l3.01 8.24 6.04 8.25 9.05 6.66 12.99 3.92 10.43 1.01 3.25.64h37.6l3.24.57h10.21l3.26 1.1h7.88l26.91 4.47 32.03 9.78 22.28 12.27 19.94 14.47 11.38 11.58 3.01 3.22 12.53 17.28 5.57 10.34 2.08 3.34 9.53 21.61 13.68 44.86 12.53 35.29 2.1 12.83v3.87l.91 3.24v5.01l.71 2.8V8789l2.32 7.81 4.4 7.23 9.06 6.68 9.74 1.56 8.58-.99 12.76-4.01 26.22-11.6 289.81-168.23 15.79-8.8V7221.61l2.55-14.92.91-8.8 9.04-33.43 14.16-31.94 7.67-11.59 7.66-12.79 16.69-20.39 2.1-3.33 20.89-19.37 1.84-3.25 19.5-15.01 3.49-2.9 26.43-16.93 9.28-5.11 3.25-2.25 11.6-3.77 17.65-3.35h18.79l10.21 2.24 14.61 4.88 16.02 8.8 10.2 8.92 6.97 7.23 2.32 2.79 9.28 12.13 2.77 5.14 5.81 8.11 2.79 6.69 3.25 6 10.22 24.95 7.42 22.72 15.99 60.34.7 9.9.71 3.37v107.77l.91 3.34v226.25l.71 3.34v226.69l.91 3.92v226.36l.93 3.11v226.81l.94 3.34v226.25l.93 3.24v223.9l.69 3.46v81.28l.93 6.13 1.38 4.24 2.56 4.57 4.65 4.55 4.64 1.57 8.81.55 6.5-1.68 12.76-5.68 3.25-2.12 9.29-4.89 7.65-5.69 5.34-2.65 4.18-2.78 9.28-5.47 5.11-3.9 8.8-4.88 5.81-3.91 8.57-5 5.35-3.8 9.5-5.01 5.11-4 9.05-5.45 7.9-5.57 5.11-2.68 4.16-2.78 9.29-5.02 5.34-3.89 9.05-5.02 5.32-3.89 9.05-4.9 5.35-3.9 9.04-5.01 5.58-4.46 8.8-5.01 5.34-3.21 9.05-5.57 8.12-5.47 4.87-2.78 4.42-2.77 8.81-5.57 5.59-3.34 9.05-4.9 5.55-4.45 8.81-5.12 5.36-3.69 9.05-5.01 5.56-3.9 9.04-4.87 5.32-4.04 8.84-5.02 20.41-13.56 8.6-9.01 4.17-8.27 2.77-6.67.48-6.67.7-3.25V8406.2l.92-3.21v-385.5l.94-3.9V7628l.69-3.21v-386.61l.93-3.33v-14.93l.7-3.33v-5.56l3.94-18.73 5.8-20.46 6.94-17.73 8.6-18.24 13.68-24.41 15.09-23.71 18.57-23.82 18.1-19.38 8.36-8.8 3.24-1.65 7.88-8.36 14.39-11.02 2.56-2.24 22.28-16.02 13.22-6.67 6.26-3.69 18.79-7.24 17.4-5.12 16.24-2.78h6.73l3.72-.46h17.62l3.49.46h6.73l3.25 1.21h4.41l18.55 4.47 18.57 7.67 15.78 10.59 16.94 16.04 7.9 9.32 3.01 3.36 9.5 14.36 6.97 12.14 10.91 22.6 9.5 24.94 11.6 43.22 10.23 49.75.45 6.03 1.17 4.44.45 6.13 6.98 42.09v25.38l-.94 3.35v5.45l-.94 3.46v5.45l-.68 3.23v6.13l-.7 3.34v6.14l-1.17 3.21v6.24l-.69 2.55v6.67l-.69 3.35v5.47l-1.17 3.33v6.12l-.93 2.9v6.55l-.69 3.26v5.66l-.93 3.35v6.56l-.7 3.34v5.56l-.92 3.23v6.7l-.7 3.34v5.45l-.93 3.35v5.57l-.93 3.34v6.44l-.69 3.47v5.44l-.93 3.47v6.57l-.93 3.21v5.59l-.7 3.23v6.76l-.92 3.34v5.46l-.92 3.34v5.57l-.93 3.35v6.57l-.71 3.33v5.68l-.91 3.12v6.23l-.72 3.35v5.91l-.68 3.31v6.15l-.94 3.34v6.12l-.91 3.23v5.57l-.93 3.34v6l-.69 3.36v6.11l-.93 3.34v6.01l-1.17 3.34v6.12l-.69 2.69v6.67l-.7 3.34v5.45l-.69 3.35v6.12l-.93 3.23v6.13l-.93 3.33v5.68l-.94 3.23v6.69l-.92 3.24v5.54l-.7 3.36v6.56l-.93 3.34v5.46l-.69 3.44v5.56l-.93 3.23v6.58l-.69 3.34v5.58l-.93 3.34v6.67l-.93 3.25v5.45l-.94 3.45v5.45l-.93 3.34v6.56l-.69 3.34v5.56l-.93 3.35v6.57l-.69 3.33v5.69l-.94 3.22v6.58l-.92 3.35v5.68l-.69 3.21v5.56l-.93 3.37v6.56l-.7 2.77v6.14l-.94 2.65v6.7l-.92 3.34v6.01l-.7 2.79v6.69l-.93 3.21v6.12l-.69 2.69v6.22l-.93 3.24v6.11l-1.14 3.9v5.45l-.7 3.46v6.01l-.93 3.23v5.68l-.69 3.25v6.55l-.93 3.44v5.47l-.94 3.44v5.57l-.68 3.14v6.67l-.94 3.35v5.45l-.69 3.45v6.56l-1.17 3.34v5.46l-.45 3.47v6.55l-.93 3.34v5.45l-.94 3.34v5.58l-.68 3.22v6.68l-1.17 3.34v5.48l-.7 3.33v6.68l-.93 3.32v5.46l-.93 3.33v6.69l-.45 3.35v5.58l-.94 3.31v5.58l-.93 3.23v6.14l-.93 3.32v6.14l-.93 3.23v6.67l-.69 2.68v6.12l-.93 2.78v6.13l-.93 3.11v6.24l-.69 3.34v6.01l-.7 3.35v6.57l-1.14 2.78v6.24l-.72 2.56v6.68l-.93 3.44v6.03l-.91 2.78v5.55l-.93 3.9v6.11l-.48 3.26v6.13l-.93 2.64v6.69l-.91 3.45v5.36l-.93 3.43v6.69l-.69 3.24v5.45l-.93 3.35v5.56l-.94 3.23v6.68l-.93 3.34v5.57l-.69 3.34v6.58l-.93 3.32v5.58l-.7 3.21v6.7l-.69 3.35v5.42l-.93 3.35v5.69l-.93 3.22v6.58l-1.16 3.24v5.65l-.69 3.36v6.68l-.7 2.66v6.24l-.93 3.12v6.23l-.69 3.24v6.12l-.93 3.35v5.44l-.93 3.35v6.56l-.94 2.79v6.12l-.69 3.23v6.12l-.93 3.46v5.89l-.69 3.35v6.12l-.93 3.36v6l-.69 2.79v6.1l-1.17 3.35v6.12l-.92 3.23v6.23l-.71 2.68v6.69l-.91 3.33v5.47l-.71 3.34v6.67l-.7 3.35v5.34l-.92 3.45v5.46l-1.16 3.32v6.71l-.47 3.33v5.45l-1.15 3.35v6.66l-.93 3.35v5.46l-.69 3.34v5.47l-.93 3.33v6.67l-.48 3.34v5.58l-.93 3.22v6.58l-.91 3.43v5.57l-.71 3.23v5.57l-1.14 3.35v6.68l-.94 3.23v5.55l-.93 3.24v6.69l-.69 2.77v6.13l-.69 3.23v6.7l-1.17 2.77v6.03l-.7 2.77v6.11l-.69 3.35v6.56l-.93 2.8v6.11l-.93 3.23v6.69l-.93 3.32v5.46l-.7 3.34v6.13l-.93 3.22v6.14l-.69 3.32v5.68l-.93 3.35v6.58l-.7 2.77v5.45l-.92 3.35v6.58l-.93 3.46v5.45l-.93 3.33v6.68l-.69 3.24v6.11l-.94 2.8v5.45l-.69 3.35v6.68l-1.14 3.33v8.35l1.83 9.45 3.03 5.91 4.18 3.47 5.33 1.55 13.92.55 10.21-2.1 16.93-5.69 378.92-156.45 95.14-42.65zM627.65 8666.2l24.83-9.91 9.98-6.14 7.43-6.68 7.42-9.33 5.34-9.92 3.02-10.59v-528.11l1.38-8.77 3.48-7.27 6.04-6.1 7.67-2.24 4.86-1.12 8.82 3.36 6.03 4.45 6.03 7.68.92 2.77 79.82 162.03 58.01 111.76 3.73 6.6 2.07 4.54 3.94 6.03 1.86 4.33 3.95 6.23 2.1 4.47 3.93 5.89 2.09 4.46 3.72 6.24 2.08 4.32 4.17 6.14 2.55 6 2.32 3.35 1.87 4.34 30.86 52.12 14.85 23.26 8.58 14.37 35.73 53.11 2.32 2.57 3.72 5.68 2.08 2.11 3.73 6.12 2.07 2.11 3.73 5.8 2.31 2.79 3.01 4.24 29.7 37.63 23.45 28.27 3.25 2.79 2.07 3.33 26.46 27.06 15.78 16.03 3.24 1.68 12.08 12.12 3.01 1.67 6.5 6.59 3.01 1.77 2.79 3.35 3 1.56 3.97 3.89 3.24 1.68 2.77 3.23 3.03 1.77 2.78 3.22 19.5 13.24 24.11 15.04 6.5 2.67 11.38 5.47 28.53 9.46 30.63 6.13 12.78.67 3.46.43h12.53l1.63-.43h15.78l6.97-1.79 10.43-3.32 54.99-29.3 38.29-23.26 8.81-4.91 84.47-54.23 5.11-2.78 6.71-5.01 8.36-7.12 5.8-8.92 2.79-10.45v-11.7l-1.16-6.56-1.63-3.81-3.7-9.46-61.03-82.83-1.87-2.35-17.4-23.71-2.31-2.22-17.4-23.95-2.09-2.21-13-17.6-2.32-2.8-59.64-81.27-2.32-2.68-12.05-17.81-2.32-2.65-15.54-22.85-2.34-2.22-17.4-25.27-2.08-2.23-20.41-30.52-40.86-61.91-23.89-40.41-5.56-8.79-3.01-6.14-2.1-3.32-1.86-3.79-3.94-6.12-1.87-4.46-4.4-6.02-20.88-40.4-24.14-48.67-20.17-46.97-20.89-57.02-4.63-19.37-.47-12.14-.7-3.34v-3.91l.7-3.23v-5.02l3.02-12.24 4.87-11.02 8.81-11.59 10.21-10.57 3.03-1.66 2.55-2.69 3.48-2.22 2.77-2.66 3.25-2.36 2.78-2.77 3.25-1.67 2.56-3.23 3.25-1.68 2.79-3.35 25.28-18.78 2.79-2.26 16.01-11.1 2.55-1.58 6.04-3.9 2.31-2.22 39.44-25.94 8.81-5.02 7.9-5.56 8.82-4.89 5.56-3.91 70.55-42.53 9.29-5.11 2.31-2.13 16.24-9.92 3.25-2.89 3.24-2.11 3.72-3.9 3.01-1.66 2.79-3.35 3.25-1.56 1.86-3.45 8.36-7.12 1.84-2.79 3.25-3.23 7.2-8.91 2.09-2.22 13.46-19.94 12.05-22.04 11.85-27.61 9.29-30.52 6.7-30.39 5.8-37.5v-5.14l.72-3.34v-7.59l.91-3.32v-7.36l.92-3.34v-68.03l-.92-2.77v-9.38l-.91-2.66v-9.46l-.72-3.35v-9.35l-.93-3.34v-8.9l-5.08-35.3-2.34-21.61-11.82-60.9-14.39-59.7-18.79-63-19.73-55.88-24.13-61.92-29.94-63.04-3.7-6.67-12.99-25.5-2.55-2.68-1.63-4.44-20.42-33.18-10.21-13.82-1.62-3.44-21.34-28.61-2.33-2.22-2.1-2.8-15.77-19.36-3.49-3.35-1.85-2.66-19.49-20.51-26.22-26.05-3.25-1.65-6.03-6.6-3.25-1.76-2.56-3.35-16.47-12.14-2.32-2.11-18.1-12.15-23.43-13.91-23.43-10.58-24.37-7.68-11.83-1.12-9.73-1.67h-9.05l-3.48 1.12h-9.98l-15.33 3.9-15.07 6-30.4 18.95-2.78 2.22-10.91 6.69-2.56 2.11-11.13 6.67-2.31 2.23-13.7 8.24-2.78 2.23-10.9 7.24-2.56 2.1-10.91 6.69-2.79 2.22-10.89 6.69-2.56 2.11-13.46 8.34-2.32 2.25-11.15 7.23-2.55 1.57-11.13 6.67-2.55 2.8-11.12 6.55-2.11 2.12-13.68 8.47-3.02 2.21-10.9 6.7-2.55 2.1-11.15 6.69-2.55 2.11-10.68 7.24-2.77 1.68-13.46 8.25-2.32 2.77-11.39 6.67-2.31 2.13-11.13 6.67-2.55 2.36-10.92 6.55-2.78 2.24-13.45 8.23-2.79 2.22-10.91 6.57-2.55 2.34-10.89 7.13-2.55 2.23-10.92 6.66-2.55 2.14-15.3 9.35-22.97-54.8-27.17-57.88-3.93-6.14-4.4-9.46-13.47-21.05-2.55-2.67-2.56-4.46-12.29-14.34-17.65-17.72-17.85-13.82-3.25-2.77-25.28-16.58-26.24-12.16-16.48-5.11-17.16-2.67h-22.27l-6.73.66-9.51 2.01-11.6 4.57-13.23 6.01-378.43 219.57-17.64 10.02-8.36 7.69-4.87 7.79-2.56 8.23.24 11.7 3.48 8.37 6.26 7.22 9.51 6.01 3.48 1H39l3.49 1.12h33.87l3.47 1.22h33.88l3.48.45h30.63l17.86 3.9 14.39 4.45 19.27 10.01 17.38 13.27 8.15 7.67 2.31 2.69 9.04 12.23 3.02 5.02 3.72 6 4.39 8.8 6.74 17.83 3.48 13.7.46 11.69.92 3.32v224.59l.93 3.33v252.22l.7 3.22v248.96l.69 3.34v251.11l.93 2.78v252.62l.93 3.34v251.21l.7 3.34v225.7l1.4 1.44 1.39-.33L567.8 8686.8zm63.81-1488.36l3.25-18.72 7.66-19.37 16.93-34.29 3.72-6.12 2.09-4.44 4.17-6.14 1.62-4.34 2.32-2.79 2.34-4.35 26.91-42.08 9.05-12.68 3-4.35 22.52-30.62 2.55-2.12 16.47-18.82 12.54-11.03 6.5-4.99 5.56-3.34 7.9-2.24 27.14-2.79 3.26 1.12 7.87.67 15.54 4.9 14.16 7.13 13.46 8.9 2.56 2.33 11.13 9.37 18.57 18.26 14.61 16.58 1.86 3.24 2.32 2.23 9.28 12.81 25.53 36.95 18.79 33.18 2.32 3.35 23.89 48.66 15.33 36.51 13.44 40.3 5.58 25.52.91 9.34.71 2.79v4.44l1.16 2.8v6.55l.69 3.35v7.67l.93 2.92v7.68l.93 3.34v7.12l.48 2.89v7.68l.9 3.23v6.22l1.17 3.24v7.81l.46 3.34v7.11l1.17 3.37v7.1l.93 3.35v15.47l.69 3.34v17.71l.93 3.35v51.53l.24 2.01-.24 2.89v36.42l-.93 2.79v17.16l-.69 3.87v12.81l-.93 3.24v12.68l-1.17 3.36v8.22l-.46 3.36v6.11l-1.17 3.89v7.24l-.9 3.23v7.24l-.48 3.35v7.12l-.93 3.34v5l-.93 3.35v4.91l-.69 2.77v4.46l-1.16 3.32v5.02l-.71 2.68v5l-.91 3.36v5l-2.78 14.25-6.05 17.81-5.8 11.04-3 6.12-15.09 22.59-2.08 2.23-14.16 16.59-20.65 19.29-7.19 4.44-2.55 2.23-14.86 9.34-15.08 7.25-11.85 2.77h-3.46l-1.86.56H800.05l-3.47-.56h-14.15l-3.73-1.11-11.82-.43-20.2-3.9-15.08-5.03-14.85-8.24-2.56-2.21-7.64-6.68-6.73-9.37-5.11-11.13-3.25-12.25zM4917.79 427.79v4559.23c0 151.36-95.54 279.17-211.96 345.94-57.17 32.76-107.27 41.21-126.8 67.78h1668.38c-17.46-48.07-71.9-7.33-218.25-153.91-55.05-55.14-103.57-160.82-103.57-268.25V436.23c0-111.99 48.68-207.78 100.28-271.51 50.04-61.76 148.53-121.31 238.48-142.21L4562.1 5.64c14.61 19.87 36.47 23.25 60.53 32.49 160.31 61.83 295.16 201.76 295.16 389.66zM1979.07 5594.92c229.86 0 414.22 4.73 604.68-38.84 420.71-96.27 689.26-397.77 786.02-820.58 49.72-217.31 32.08-688.73 32.08-930.51 0-266.81-13.14-373.36 98.11-543.86 234.56-359.43 785.71-415.84 825.01-469.3-348.7 0-314.28-.99-618.97 24.59-322.92 27.12-741.95 72.02-979.72 306.63-263.83 260.33-366.12 507.95-366.11 918.35v962.51c.11 192.71-36.34 335.29-187.4 454.83-32.63 25.82-57.5 43.77-93.64 67.07-66.62 42.97-89.17 28.41-100.06 69.11zM6518.42 2808.73c98.78 8.19 362.68 108.9 448.85 151.96 130.22 65.07 262.12 150.95 346.11 262.85 101 134.57 128.13 248.31 128.13 480.15v607.89c0 275.2 7.19 437.37 104.52 655.69 28.89 64.76 65.42 139.05 108.32 195.97l67.84 84.33c191.65 236.76 556.37 347.36 871.08 347.36 97.77 0 163.85-8.45 262.57-8.45-31.76-43.17-307.3-117.46-366.64-428.15-17.75-92.94-6.01-936.45-6.01-1074.7 0-405.68-110.68-771.28-418.49-1001.21-228.75-170.87-476.8-217.59-765.62-249.89-371.19-41.49-432.99-40.69-780.66-40.69zM6552.29 5.64c21.05 28.67 26.45 15.77 105.24 30.14 125.89 23.03 216.75 55.96 326.85 104.81 82.83 36.67 199.83 103.04 264.44 166.92l72.2 71.59c98.34 111.33 161.2 228.01 191.78 382.84 30.81 155.56 55.74 338.03 55.74 518.6 0 98.86-12.98 180.64-16.87 270.26-6.52 152.41-42.68 342.22-109.94 472.99-98.71 191.93-264.65 326.93-451.84 427.55-67.42 36.25-128.89 55.55-202.91 84.78l-226.22 69.96c95.26 22.15 157.87 1.59 228.41-.23 65.3-1.7 120.32-2.82 182.97-11.78 58.64-8.38 125.9-13.13 175.43-19.3 280.89-35.02 551.01-86.37 777.19-221.47 98.35-58.74 96.81-64.62 172.5-123.57 22.96-17.9 34.69-26.04 53.18-48.26 61.02-73.41 122.84-146.98 163.4-233.96 141.7-304.15 181.89-668.36 98.35-1001.41-138.47-551.6-509.21-844.6-1085.47-927.33-224.71-32.27-517.13-13.13-774.43-13.13zM4291.09 2614.54v-16.89c-66.52-5.52-173.9-39.47-229.75-58.01-78.14-25.96-134.57-51.98-202.17-85.51-63.64-31.56-123.03-67.39-179.17-108.45-368.3-269.31-405.18-631.62-405.18-1082.01 0-233.52 29.61-524.03 126.93-717.8 159.64-317.79 500.87-457.14 833.88-519.55 4.02-.73 24.94-4.69 28.15-5.65 19.27-6.16 13.2-2.78 27.31-15.03-511.64 0-946.32-55.67-1375.46 224.5-192.99 125.93-268.57 230.88-382.61 420.61-13.21 22.01-19.4 41.66-29.12 63.88-59.45 135.61-88.33 249.59-107.65 399.2l-10.83 191.94c12.17 203.23 33.84 401.91 115.82 585.56 11.82 26.48 17.33 45.55 31.77 69.6 69.32 115.66 119.86 190.18 222.58 276.28 232.75 195.09 459.16 262.79 790.2 318.25 226.22 37.91 482.75 59.08 745.3 59.08z"/></g></svg>